PathFileType	4	(X/Y/Z)	C:/Users/beibeiliu/ov580/test_trc\sequence.30_training_dense_left.trc
DataRate	CameraRate	NumFrames	NumMarkers	Units	OrigDataRate	OrigDataStartFrame	OrigNumFrames
120	120	7	19	mm	120	266	354
Frame#	Time	ThumbCMC			ThumbMCP			ThumbIP			ThumbTip			IndexMCP			IndexPIP			IndexTip			MiddleMCP			MiddlePIP			MiddleTip			RingMCP			RingPIP			RingTip			PinkyMCP			PinkyPIP			PinkyTip			BackHand1			BackHand2			BackHand3	
		X0	Y0	Z0	X1	Y1	Z1	X2	Y2	Z2	X3	Y3	Z3	X4	Y4	Z4	X5	Y5	Z5	X6	Y6	Z6	X7	Y7	Z7	X8	Y8	Z8	X9	Y9	Z9	X10	Y10	Z10	X11	Y11	Z11	X12	Y12	Z12	X13	Y13	Z13	X14	Y14	Z14	X15	Y15	Z15	X16	Y16	Z16	X17	Y17	Z17	X18	Y18	Z18	
265	2.20833	-188.749	-24.275	39.0428	-186.917	-38.7069	20.4825	-178.533	-47.6628	-0.452524	-177.295	-52.1028	-20.4104	-189.737	-15.1025	-22.9171	-200.351	-36.8377	-43.3783	-215.89	-53.8321	-44.2595	-199.48	5.23927	-28.739	-201.396	5.02661	-50.6136	-198.92	5.1652	-77.1521	-216.536	15.3755	-24.1644	-221.433	19.2223	-45.1337	-219.874	18.8929	-63.8036	-235.969	23.8743	-6.34157	-237.661	33.6065	-23.7539	-236.679	45.7486	-34.0151	-214.654	19.0657	23.2522	-214.892	20.7066	45.2485	-189.859	6.25197	34.4743	
266	2.21667	-188.268	-21.5021	38.8278	-184.504	-34.1355	17.2168	-177.409	-41.759	-2.55126	-174.965	-46.2543	-23.0635	-187.74	-10.0162	-23.9236	-192.252	-27.5053	-43.8581	-206.45	-48.2865	-51.4163	-201.308	11.5264	-29.2791	-199.178	9.99472	-51.7832	-196.831	12.8711	-78.8492	-217.401	16.9376	-23.3547	-222.372	16.9792	-45.6268	-225.025	15.6092	-71.2045	-236.104	25.4951	-10.1955	-240.277	34.2327	-23.9751	-237.681	44.2509	-36.0441	-213.555	21.3778	20.2739	-219.575	21.2419	47.1919	-191.976	8.72761	35.8045	
267	2.225	-188.586	-19.1571	40.228	-180.698	-32.7983	16.7223	-178.832	-36.9873	-2.55799	-172.292	-42.7477	-24.7235	-183.983	-5.43803	-23.047	-189.844	-23.6453	-46.2536	-204.062	-42.6659	-57.9807	-199.076	14.5642	-31.4639	-198.139	14.3376	-49.4994	-193.627	18.222	-74.9951	-221.834	18.864	-22.4793	-223.203	14.019	-49.4735	-227.058	7.57772	-67.5336	-236.254	24.4779	-9.9853	-240.772	30.96	-25.28	-241.658	41.7285	-37.2358	-219.465	24.8775	22.0079	-222.398	21.7289	49.5373	-195.515	11.5201	36.9565	
268	2.23333	-188.756	-18.0919	43.2071	-183.62	-28.6667	17.832	-174.392	-34.3709	-5.87865	-173.403	-38.7943	-22.0802	-181.526	-5.40966	-24.7526	-185.387	-15.8195	-42.9049	-197.986	-37.4532	-60.4667	-200.299	17.4909	-28.7683	-198.477	18.7549	-52.2528	-194.407	21.6554	-70.0232	-222.952	18.1992	-24.0425	-223.032	10.0262	-47.151	-227.007	-1.00675	-63.7276	-241.969	26.1865	-10.1353	-241.32	28.712	-26.0635	-243.945	38.1497	-43.6845	-219.976	25.6064	23.9579	-222.151	21.4932	51.835	-196.935	15.379	35.3473	
269	2.24167	-188.077	-19.2002	46.1834	-179.928	-29.8531	18.1063	-175.967	-32.1458	-2.45771	-171.292	-36.0495	-26.1866	-182.627	-0.839664	-19.7009	-186.3	-11.927	-43.2026	-192.49	-32.0746	-58.7462	-201.833	19.3142	-23.8248	-198.727	19.9402	-45.5133	-195.171	24.3186	-68.7927	-218.208	16.7006	-25.3137	-222.609	6.20695	-49.2077	-229.752	-9.97348	-65.7922	-240.121	24.7064	-8.09596	-242.326	27.6473	-26.2448	-244.498	34.905	-40.0896	-220.824	23.3066	25.9725	-219.952	22.0302	51.9997	-195.532	11.7698	41.2985	
270	2.25	-192.701	-15.419	45.0317	-180.06	-28.4083	17.876	-174.569	-31.472	-3.56393	-171.151	-35.1208	-22.2002	-182.286	2.05802	-20.534	-187.662	-8.9925	-42.6668	-192.045	-27.5269	-58.3596	-197.607	20.0284	-26.6081	-197.616	21.9153	-45.1316	-193.461	25.9493	-72.3129	-218.596	16.643	-23.4243	-224.802	7.3065	-45.3276	-225.982	-17.0191	-61.7177	-239.479	23.903	-7.74458	-238.687	25.472	-24.4356	-243.215	36.5444	-43.7204	-221.319	24.3703	25.9146	-224.095	20.5271	51.7705	-197.412	15.6174	41.2399	
271	2.25833	-190.069	-14.8394	44.6676	-178.626	-27.3446	17.9321	-173.806	-30.2916	-2.87864	-174.099	-30.3334	-22.8656	-180.892	2.15352	-21.9733	-183.88	-10.925	-42.1952	-192.993	-28.8662	-59.8871	-199.938	21.8215	-27.1276	-194.685	21.7505	-44.24	-193.095	25.9818	-67.4526	-219.547	15.8654	-21.1492	-220.911	1.87126	-45.7106	-227.432	-18.813	-56.7594	-237.937	22.9041	-10.1724	-242.105	27.3619	-30.041	-242.712	32.9782	-47.7815	-222.937	25.9148	23.3725	-223.651	21.7554	52.2981	-198.854	14.7444	39.0464	
